<?xml version="1.0" encoding="UTF-8"?>
<svg id="Layer_2" xmlns="http://www.w3.org/2000/svg" baseProfile="tiny" version="1.2" viewBox="0 0 75 75">
  <!-- Generator: Adobe Illustrator 29.3.1, SVG Export Plug-In . SVG Version: 2.1.0 Build 151)  -->
  <path d="M54.334,57.793H19.265c-8.77,0-15.903-7.134-15.903-15.904s7.134-15.904,15.903-15.904c1.019,0,2.031.098,3.028.292,3.002-5.566,8.791-9.071,15.218-9.071,5.202,0,10.099,2.341,13.373,6.328,1.141-.233,2.296-.352,3.45-.352,9.542,0,17.306,7.763,17.306,17.305s-7.764,17.305-17.306,17.305ZM19.265,30.238c-6.425,0-11.651,5.227-11.651,11.652s5.227,11.652,11.651,11.652h35.069c7.198,0,13.054-5.855,13.054-13.053s-5.855-13.053-13.054-13.053c-1.24,0-2.484.182-3.699.541l-1.481.438-.874-1.274c-2.44-3.557-6.467-5.681-10.769-5.681-5.319,0-10.061,3.186-12.079,8.116l-.745,1.818-1.871-.599c-1.152-.369-2.348-.556-3.551-.556Z" fill="#0082ff"/>
</svg>