<?xml version="1.0" encoding="UTF-8"?>
<svg id="Layer_2" xmlns="http://www.w3.org/2000/svg" baseProfile="tiny" version="1.2" viewBox="0 0 75 75">
  <!-- Generator: Adobe Illustrator 29.3.1, SVG Export Plug-In . SVG Version: 2.1.0 Build 151)  -->
  <g>
    <path d="M24.583,61.571c-2.826,0-5.126-2.299-5.126-5.126,0-.101.705-10.126,5.126-10.126s5.126,10.025,5.126,10.126c0,2.827-2.3,5.126-5.126,5.126ZM24.583,52.153c-.475,1.505-.874,3.45-.874,4.292,0,.482.393.874.874.874s.874-.392.874-.874c0-.842-.399-2.787-.874-4.292Z" fill="#0082ff"/>
    <path d="M50.417,61.571c-2.826,0-5.126-2.299-5.126-5.126,0-.101.705-10.126,5.126-10.126s5.126,10.025,5.126,10.126c0,2.827-2.3,5.126-5.126,5.126ZM50.417,52.153c-.475,1.505-.874,3.449-.874,4.292,0,.482.393.874.874.874s.874-.392.874-.874c0-.842-.399-2.787-.874-4.292Z" fill="#0082ff"/>
    <path d="M37.5,70.639c-2.826,0-5.126-2.299-5.126-5.126,0-.101.705-10.126,5.126-10.126s5.126,10.025,5.126,10.126c0,2.827-2.3,5.126-5.126,5.126ZM37.5,61.221c-.475,1.505-.874,3.45-.874,4.292,0,.482.393.874.874.874s.874-.392.874-.874c0-.842-.399-2.787-.874-4.292Z" fill="#0082ff"/>
  </g>
  <path d="M54.334,44.948H19.265c-8.77,0-15.903-7.134-15.903-15.904s7.134-15.903,15.903-15.903c1.019,0,2.031.098,3.028.292,3.002-5.565,8.791-9.071,15.218-9.071,5.202,0,10.099,2.34,13.373,6.328,1.142-.234,2.297-.352,3.45-.352,9.542,0,17.306,7.763,17.306,17.305s-7.764,17.305-17.306,17.305ZM19.265,17.393c-6.425,0-11.651,5.227-11.651,11.651s5.227,11.652,11.651,11.652h35.069c7.198,0,13.054-5.855,13.054-13.053s-5.855-13.053-13.054-13.053c-1.238,0-2.483.182-3.7.541l-1.48.437-.874-1.273c-2.441-3.557-6.467-5.681-10.769-5.681-5.319,0-10.062,3.186-12.079,8.116l-.745,1.818-1.871-.599c-1.151-.369-2.347-.556-3.551-.556Z" fill="#0082ff"/>
</svg>