<?xml version="1.0" encoding="UTF-8"?>
<svg id="Layer_2" xmlns="http://www.w3.org/2000/svg" baseProfile="tiny" version="1.2" viewBox="0 0 75 75">
  <!-- Generator: Adobe Illustrator 29.3.1, SVG Export Plug-In . SVG Version: 2.1.0 Build 151)  -->
  <path d="M37.5,54.626c-9.443,0-17.126-7.683-17.126-17.126s7.683-17.126,17.126-17.126,17.126,7.683,17.126,17.126-7.683,17.126-17.126,17.126ZM37.5,24.626c-7.099,0-12.874,5.775-12.874,12.874s5.775,12.874,12.874,12.874,12.874-5.775,12.874-12.874-5.775-12.874-12.874-12.874Z" fill="gold"/>
  <path d="M68.5,39.626h-8c-1.174,0-2.126-.952-2.126-2.126s.952-2.126,2.126-2.126h8c1.174,0,2.126.952,2.126,2.126s-.952,2.126-2.126,2.126Z" fill="gold"/>
  <path d="M57.421,28.126c-.734,0-1.449-.381-1.843-1.063-.588-1.017-.239-2.317.777-2.904l4.33-2.5c1.018-.586,2.317-.238,2.904.778.588,1.017.239,2.317-.777,2.904l-4.33,2.5c-.335.193-.701.285-1.062.285Z" fill="gold"/>
  <path d="M48.998,19.708c-.36,0-.727-.092-1.062-.285-1.017-.587-1.365-1.888-.777-2.904l4-6.928c.586-1.018,1.886-1.366,2.904-.778,1.017.587,1.365,1.888.777,2.904l-4,6.928c-.394.682-1.108,1.063-1.843,1.063Z" fill="gold"/>
  <path d="M37.5,16.626c-1.174,0-2.126-.952-2.126-2.126v-5c0-1.174.952-2.126,2.126-2.126s2.126.952,2.126,2.126v5c0,1.174-.952,2.126-2.126,2.126Z" fill="gold"/>
  <path d="M26.002,19.708c-.734,0-1.449-.381-1.843-1.063l-4-6.928c-.588-1.017-.239-2.317.777-2.904,1.019-.587,2.317-.238,2.904.778l4,6.928c.588,1.017.239,2.317-.777,2.904-.335.193-.701.285-1.062.285Z" fill="gold"/>
  <path d="M17.579,28.126c-.36,0-.727-.092-1.062-.285l-4.33-2.5c-1.017-.587-1.365-1.888-.777-2.904.586-1.017,1.887-1.366,2.904-.778l4.33,2.5c1.017.587,1.365,1.888.777,2.904-.394.682-1.108,1.063-1.843,1.063Z" fill="gold"/>
  <path d="M14.5,39.626H6.5c-1.174,0-2.126-.952-2.126-2.126s.952-2.126,2.126-2.126h8c1.174,0,2.126.952,2.126,2.126s-.952,2.126-2.126,2.126Z" fill="gold"/>
  <path d="M13.253,53.626c-.734,0-1.449-.381-1.843-1.063-.588-1.017-.239-2.317.777-2.904l4.33-2.5c1.019-.587,2.318-.238,2.904.778.588,1.017.239,2.317-.777,2.904l-4.33,2.5c-.335.193-.701.285-1.062.285Z" fill="gold"/>
  <path d="M21.998,66.473c-.36,0-.727-.092-1.062-.285-1.017-.587-1.365-1.888-.777-2.904l4-6.928c.586-1.017,1.886-1.366,2.904-.778,1.017.587,1.365,1.888.777,2.904l-4,6.928c-.394.682-1.108,1.063-1.843,1.063Z" fill="gold"/>
  <path d="M37.5,67.626c-1.174,0-2.126-.952-2.126-2.126v-5c0-1.174.952-2.126,2.126-2.126s2.126.952,2.126,2.126v5c0,1.174-.952,2.126-2.126,2.126Z" fill="gold"/>
  <path d="M53.002,66.473c-.734,0-1.449-.381-1.843-1.063l-4-6.928c-.588-1.017-.239-2.317.777-2.904,1.019-.586,2.318-.238,2.904.778l4,6.928c.588,1.017.239,2.317-.777,2.904-.335.193-.701.285-1.062.285Z" fill="gold"/>
  <path d="M61.747,53.626c-.36,0-.727-.092-1.062-.285l-4.33-2.5c-1.017-.587-1.365-1.888-.777-2.904.587-1.017,1.886-1.366,2.904-.778l4.33,2.5c1.017.587,1.365,1.888.777,2.904-.394.682-1.108,1.063-1.843,1.063Z" fill="gold"/>
</svg>