<?xml version="1.0" encoding="UTF-8"?>
<svg id="Layer_2" xmlns="http://www.w3.org/2000/svg" baseProfile="tiny" version="1.2" viewBox="0 0 75 75">
  <!-- Generator: Adobe Illustrator 29.3.1, SVG Export Plug-In . SVG Version: 2.1.0 Build 151)  -->
  <g>
    <path d="M19.685,46.933c-.514,0-1.029-.185-1.438-.561-2.609-2.397-4.106-5.804-4.106-9.346,0-6.997,5.692-12.689,12.688-12.689,3.482,0,6.851,1.455,9.24,3.992.805.854.765,2.2-.09,3.005-.855.804-2.198.766-3.006-.09-1.612-1.712-3.795-2.655-6.145-2.655-4.652,0-8.437,3.785-8.437,8.438,0,2.355.995,4.621,2.731,6.215.864.794.922,2.139.127,3.004-.419.456-.991.688-1.566.688Z" fill="gold"/>
    <path d="M38.283,27.699c-.544,0-1.088-.208-1.503-.623-.831-.831-.831-2.176,0-3.007l3.983-3.983c.83-.83,2.176-.83,3.006,0,.831.831.831,2.176,0,3.007l-3.983,3.983c-.415.415-.959.623-1.503.623Z" fill="gold"/>
    <path d="M26.83,22.955c-1.174,0-2.126-.952-2.126-2.126v-5.634c0-1.174.952-2.126,2.126-2.126s2.126.952,2.126,2.126v5.634c0,1.174-.952,2.126-2.126,2.126Z" fill="gold"/>
    <path d="M15.378,27.699c-.544,0-1.088-.208-1.503-.623l-3.983-3.983c-.831-.831-.831-2.176,0-3.007.83-.83,2.176-.83,3.006,0l3.983,3.983c.831.831.831,2.176,0,3.007-.415.415-.959.623-1.503.623Z" fill="gold"/>
    <path d="M10.634,39.152h-5.634c-1.174,0-2.126-.952-2.126-2.126s.952-2.126,2.126-2.126h5.634c1.174,0,2.126.952,2.126,2.126s-.952,2.126-2.126,2.126Z" fill="gold"/>
    <path d="M11.394,54.588c-.544,0-1.088-.208-1.503-.623-.831-.831-.831-2.176,0-3.007l3.983-3.983c.83-.83,2.176-.83,3.006,0,.831.831.831,2.176,0,3.007l-3.983,3.983c-.415.415-.959.623-1.503.623Z" fill="gold"/>
  </g>
  <path d="M59.31,36.3c-.412,0-.824.026-1.236.066-.153.015-.304.039-.456.06-.165.022-.33.036-.494.065-2.42-2.778-5.934-4.399-9.66-4.399-4.605,0-8.769,2.43-11.047,6.321-.11-.017-.221-.024-.331-.038-.112-.014-.223-.028-.336-.039-.376-.036-.753-.061-1.132-.061,0,0-.002,0-.002,0h0c-6.522,0-11.828,5.306-11.828,11.829s5.306,11.828,11.828,11.828h24.696c7.066,0,12.815-5.749,12.815-12.815s-5.749-12.815-12.815-12.815ZM59.31,57.679h-24.696c-4.178,0-7.576-3.398-7.576-7.576s3.398-7.577,7.576-7.577c.351,0,.701.033,1.048.082.086.012.172.027.258.042.308.054.613.124.914.217.057.017.116.029.172.048l.021.007c1.275.428,2.427,1.194,3.327,2.237.421.487,1.015.737,1.611.737.492,0,.986-.17,1.388-.516.889-.767.988-2.109.222-2.999-.869-1.008-1.893-1.845-3.017-2.499,1.586-2.188,4.116-3.538,6.906-3.538,1.921,0,3.75.658,5.232,1.807-1.103.665-2.114,1.491-2.984,2.475-.778.879-.696,2.223.183,3.001.405.358.907.534,1.408.534.588,0,1.173-.242,1.593-.717,1.107-1.25,2.546-2.126,4.124-2.566.303-.084.608-.15.914-.201.087-.014.174-.031.262-.042.371-.05.743-.082,1.115-.082,4.722,0,8.563,3.841,8.563,8.563s-3.842,8.563-8.563,8.563Z" fill="#0082ff"/>
</svg>