<?xml version="1.0" encoding="UTF-8"?>
<svg id="Layer_1" xmlns="http://www.w3.org/2000/svg" baseProfile="tiny" version="1.2" viewBox="0 0 75 75">
  <!-- Generator: Adobe Illustrator 29.3.1, SVG Export Plug-In . SVG Version: 2.1.0 Build 151)  -->
  <path d="M40,68.042c-9.443,0-17.126-7.683-17.126-17.126,0-5.922,3.034-11.36,8-14.487v-20.346c0-5.032,4.094-9.126,9.126-9.126s9.126,4.094,9.126,9.126v20.346c4.966,3.126,8,8.564,8,14.487,0,9.443-7.683,17.126-17.126,17.126ZM40,11.209c-2.688,0-4.874,2.187-4.874,4.874v22.852l-1.132.599c-4.236,2.241-6.868,6.602-6.868,11.382,0,7.099,5.775,12.874,12.874,12.874s12.874-5.775,12.874-12.874c0-4.78-2.632-9.142-6.868-11.382l-1.132-.599v-22.852c0-2.688-2.187-4.874-4.874-4.874Z" fill="#1a1a1a"/>
  <circle cx="40" cy="50.917" r="7" fill="#c80000"/>
  <g>
    <path d="M25,13.626h-5c-1.174,0-2.126-.952-2.126-2.126s.952-2.126,2.126-2.126h5c1.174,0,2.126.952,2.126,2.126s-.952,2.126-2.126,2.126Z" fill="#1a1a1a"/>
    <path d="M25,23.626h-5c-1.174,0-2.126-.952-2.126-2.126s.952-2.126,2.126-2.126h5c1.174,0,2.126.952,2.126,2.126s-.952,2.126-2.126,2.126Z" fill="#1a1a1a"/>
    <path d="M25,33.626h-5c-1.174,0-2.126-.952-2.126-2.126s.952-2.126,2.126-2.126h5c1.174,0,2.126.952,2.126,2.126s-.952,2.126-2.126,2.126Z" fill="#1a1a1a"/>
  </g>
</svg>