<?xml version="1.0" encoding="UTF-8"?>
<svg id="Layer_2" xmlns="http://www.w3.org/2000/svg" baseProfile="tiny" version="1.2" viewBox="0 0 75 75">
  <!-- Generator: Adobe Illustrator 29.3.1, SVG Export Plug-In . SVG Version: 2.1.0 Build 151)  -->
  <path d="M32.053,38.878c-6.209,0-13.229-.591-21.048-1.776-1.161-.176-1.96-1.26-1.783-2.42.175-1.162,1.267-1.957,2.42-1.784,28.983,4.392,41.071-.448,46.106-5.282,4.149-3.981,3.8-8.341,3.795-8.384l-.013-.231c0-4.342-3.532-7.874-7.874-7.874s-7.874,3.532-7.874,7.874c0,1.174-.952,2.126-2.126,2.126s-2.126-.952-2.126-2.126c0-6.687,5.439-12.126,12.126-12.126s12.077,5.392,12.126,12.037c.07.992.215,6.683-5.09,11.772-5.686,5.457-15.283,8.194-28.64,8.194Z" fill="#1a1a1a"/>
  <path d="M45.323,68.126c-5.583,0-10.126-4.542-10.126-10.126,0-1.174.952-2.126,2.126-2.126s2.126.952,2.126,2.126c0,3.239,2.635,5.874,5.874,5.874s5.874-2.635,5.874-5.874c.003-.199.005-3.632-3.631-6.829-4.251-3.737-13.937-7.536-35.943-4.4-1.166.166-2.239-.643-2.404-1.805-.166-1.163.643-2.239,1.805-2.405,19.104-2.72,32.396-.85,39.511,5.559,5.055,4.553,4.922,9.74,4.914,9.958,0,5.504-4.542,10.047-10.125,10.047Z" fill="#1a1a1a"/>
  <path d="M20.131,31.309c-2.743,0-5.848-.414-9.303-1.242-1.143-.273-1.846-1.421-1.572-2.563.273-1.142,1.426-1.847,2.562-1.572,8.901,2.133,13.274.833,15.374-.632,1.888-1.318,2.291-3.012,2.363-3.421-.063-1.207-1.065-2.17-2.288-2.17-1.264,0-2.291,1.027-2.291,2.291,0,1.174-.952,2.126-2.126,2.126s-2.126-.952-2.126-2.126c0-3.607,2.936-6.542,6.543-6.542s6.543,2.935,6.543,6.542l-.008.177c-.032.391-.422,3.896-4.025,6.502-2.423,1.752-5.65,2.63-9.646,2.63Z" fill="#1a1a1a"/>
</svg>